<svg width="684" height="348" viewBox="0 0 684 348" fill="none" xmlns="http://www.w3.org/2000/svg">
<g clip-path="url(#clip0)">
<ellipse cx="202" cy="304" rx="43" ry="44" fill="#352BC6"/>
<circle cx="513.5" cy="91.5" r="10.5" fill="#141049"/>
<circle cx="550.5" cy="145.5" r="9.5" fill="#352BC6"/>
<circle cx="191" cy="138" r="8" fill="#352BC6"/>
<circle cx="55" cy="46" r="13" fill="#141049"/>
<ellipse cx="464.5" cy="233.5" rx="78.5" ry="79.5" fill="#141049"/>
<rect x="159" y="299" width="47" height="49" fill="#352BC6"/>
<rect x="460" y="230" width="83" height="83" fill="#141049"/>
<rect x="513" y="92" width="11" height="10" fill="#141049"/>
<rect x="59" y="46" width="9" height="13" fill="#141049"/>
<rect x="541" y="146" width="9" height="9" fill="#352BC6"/>
<rect x="190" y="130" width="9" height="6" fill="#352BC6"/>
<rect y="97" width="95" height="83" fill="#141049"/>
<rect x="617" y="86" width="67" height="49" fill="#141049"/>
<ellipse cx="89.5" cy="138.5" rx="47.5" ry="41.5" fill="#141049"/>
<ellipse cx="619.5" cy="110.5" rx="25.5" ry="24.5" fill="#141049"/>
<path d="M62 75.5C62 111.115 32.9057 140 -3 140C-38.9057 140 -68 111.115 -68 75.5C-68 39.8848 -38.9057 11 -3 11C32.9057 11 62 39.8848 62 75.5Z" stroke="#352BC6" stroke-width="2"/>
<path d="M751 67.5C751 104.248 721.877 134 686 134C650.123 134 621 104.248 621 67.5C621 30.7518 650.123 1 686 1C721.877 1 751 30.7518 751 67.5Z" stroke="#352BC6" stroke-width="2"/>
</g>
<defs>
<clipPath id="clip0">
<rect width="684" height="348" fill="white"/>
</clipPath>
</defs>
</svg>
