<svg width="121" height="122" viewBox="0 0 121 122" fill="none" xmlns="http://www.w3.org/2000/svg">
<path d="M0.17627 106.937L105.961 0.799412L104.172 16.8228L120.384 15.0126L14.3115 121.071L16.0879 105.16L0.17627 106.937Z" fill="url(#paint0_linear)"/>
<path d="M39.9455 85.1114C39.9973 85.0595 40.0633 85.0336 40.1434 85.0336L40.9248 85.0654C40.9743 85.5297 40.9154 85.9823 40.748 86.4231C40.583 86.8615 40.2884 87.2928 39.8641 87.7171C39.4847 88.0965 39.0781 88.3735 38.6444 88.5479C38.213 88.72 37.7746 88.7978 37.3292 88.7813C36.8837 88.7648 36.4429 88.654 36.0069 88.4489C35.5732 88.2415 35.1666 87.948 34.7871 87.5686C34.4029 87.1844 34.113 86.7719 33.9174 86.3311C33.7194 85.888 33.6157 85.4402 33.6062 84.9876C33.5992 84.5327 33.6864 84.0872 33.8679 83.6512C34.047 83.2128 34.324 82.8062 34.6987 82.4314C35.0711 82.059 35.4624 81.7903 35.8725 81.6253C36.285 81.458 36.6916 81.372 37.0923 81.3672L37.216 82.1274C37.2255 82.1745 37.2255 82.224 37.216 82.2759C37.209 82.3254 37.1795 82.376 37.1276 82.4279C37.0923 82.4633 37.0463 82.4904 36.9898 82.5092C36.9308 82.5257 36.8648 82.5422 36.7918 82.5587C36.7163 82.5729 36.6315 82.5917 36.5372 82.6153C36.4429 82.6389 36.3427 82.6754 36.2367 82.7249C36.1283 82.772 36.0128 82.838 35.8902 82.9229C35.7676 83.003 35.6392 83.1103 35.5048 83.2446C35.2762 83.4732 35.1077 83.7243 34.9992 83.9977C34.8908 84.2664 34.846 84.5469 34.8649 84.8391C34.8814 85.129 34.9639 85.4237 35.1124 85.723C35.2585 86.02 35.4742 86.3111 35.7594 86.5963C36.0469 86.8839 36.3427 87.0995 36.6468 87.2433C36.9532 87.3847 37.2526 87.4625 37.5448 87.4766C37.8371 87.4908 38.1188 87.4448 38.3898 87.3388C38.6585 87.2303 38.9013 87.0677 39.1181 86.8509C39.2478 86.7212 39.3574 86.5975 39.4469 86.4796C39.5389 86.3594 39.6131 86.2404 39.6697 86.1225C39.7286 86.0023 39.7734 85.8798 39.804 85.7548C39.8347 85.6252 39.8535 85.4861 39.8606 85.3376C39.863 85.2929 39.8712 85.2516 39.8854 85.2139C39.8971 85.1738 39.9172 85.1397 39.9455 85.1114ZM44.524 77.8317C44.8988 78.2064 45.184 78.6165 45.3796 79.062C45.5753 79.5028 45.6766 79.953 45.6837 80.4126C45.6908 80.8722 45.6012 81.3271 45.415 81.7773C45.2264 82.2251 44.9377 82.6435 44.5488 83.0324C44.1622 83.419 43.745 83.7065 43.2972 83.8951C42.847 84.0813 42.3909 84.172 41.9289 84.1673C41.4693 84.1603 41.018 84.0601 40.5748 83.8668C40.1294 83.6712 39.7192 83.386 39.3445 83.0112C38.9697 82.6364 38.6857 82.2275 38.4924 81.7844C38.2968 81.3389 38.1954 80.8864 38.1884 80.4267C38.1836 79.9648 38.2756 79.5099 38.4641 79.062C38.6503 78.6118 38.9367 78.1935 39.3233 77.8069C39.5825 77.5476 39.8571 77.3343 40.147 77.167C40.4346 76.9973 40.7292 76.8723 41.0309 76.7922C41.3303 76.7097 41.6343 76.672 41.9431 76.6791C42.2519 76.6814 42.5559 76.7262 42.8553 76.8134C43.1546 76.9006 43.4445 77.0303 43.725 77.2023C44.0078 77.372 44.2742 77.5818 44.524 77.8317ZM43.5518 78.8039C43.2713 78.5234 42.9825 78.3101 42.6856 78.164C42.3862 78.0155 42.0892 77.933 41.7946 77.9165C41.5 77.9 41.2112 77.9507 40.9284 78.0685C40.6479 78.184 40.3827 78.3667 40.1329 78.6165C39.8831 78.8664 39.6992 79.1327 39.5814 79.4156C39.4659 79.6961 39.4152 79.9848 39.4293 80.2818C39.4458 80.5764 39.5283 80.8734 39.6768 81.1727C39.8229 81.4697 40.0363 81.7585 40.3167 82.0389C40.5972 82.3194 40.8871 82.5339 41.1865 82.6824C41.4835 82.8285 41.7793 82.9099 42.0739 82.9264C42.3685 82.9381 42.6561 82.8863 42.9366 82.7708C43.2194 82.6529 43.4858 82.4691 43.7356 82.2193C43.9854 81.9694 44.1681 81.7042 44.2836 81.4238C44.4015 81.1409 44.4533 80.8534 44.4392 80.5611C44.4227 80.2665 44.3414 79.9707 44.1952 79.6737C44.0467 79.3743 43.8322 79.0844 43.5518 78.8039ZM48.3468 68.8965L53.4592 74.0089L52.6212 74.8468L49.319 71.5446C49.187 71.4127 49.0515 71.263 48.9125 71.0956L50.2701 75.5433C50.3361 75.7555 50.2937 75.937 50.1428 76.0878L50.0085 76.2222C49.8576 76.373 49.6761 76.4154 49.464 76.3494L44.988 74.9989C45.0729 75.0696 45.1554 75.1403 45.2355 75.211C45.3156 75.2817 45.3875 75.3489 45.4512 75.4125L48.7534 78.7147L47.9154 79.5526L42.8031 74.4402L43.5208 73.7225C43.5632 73.6801 43.6009 73.6448 43.6339 73.6165C43.6669 73.5882 43.6999 73.567 43.7329 73.5528C43.7683 73.5363 43.806 73.5293 43.846 73.5316C43.8885 73.5316 43.9368 73.5399 43.991 73.5564L48.3609 74.8645C48.4764 74.8999 48.5907 74.9411 48.7039 74.9883C48.8194 75.033 48.936 75.0814 49.0539 75.1332C48.9997 75.013 48.9502 74.8952 48.9054 74.7797C48.8582 74.6618 48.817 74.5451 48.7816 74.4296L47.4593 70.088C47.4429 70.0338 47.4346 69.9855 47.4346 69.943C47.4346 69.9006 47.4417 69.8629 47.4558 69.8299C47.4723 69.7946 47.4947 69.7604 47.523 69.7274C47.5513 69.6944 47.5866 69.6567 47.6291 69.6142L48.3468 68.8965ZM55.5544 71.9137L54.5998 72.8683L49.4874 67.7559L50.442 66.8013L55.5544 71.9137ZM55.8965 61.3468L61.0088 66.4592L60.5209 66.9471C60.4455 67.0225 60.3701 67.0744 60.2947 67.1027C60.2192 67.1263 60.1285 67.1322 60.0224 67.1204L53.9448 66.3814C54.1146 66.5229 54.2654 66.6596 54.3974 66.7916L57.5369 69.9311L56.699 70.769L51.5866 65.6567L52.0852 65.1581C52.1252 65.1181 52.1618 65.0863 52.1948 65.0627C52.2278 65.0344 52.2608 65.0155 52.2938 65.0061C52.3267 64.992 52.3645 64.9849 52.4069 64.9849C52.447 64.9825 52.4965 64.9849 52.5554 64.992L58.6577 65.7344C58.5681 65.659 58.4809 65.5836 58.3961 65.5082C58.3112 65.4327 58.2346 65.3608 58.1663 65.2925L55.0585 62.1848L55.8965 61.3468ZM63.7984 58.5431L65.8667 60.6114C65.7984 61.0616 65.6617 61.4788 65.4566 61.863C65.2515 62.2425 64.9817 62.5995 64.647 62.9342C64.2298 63.3514 63.7866 63.6649 63.3176 63.8747C62.8509 64.0821 62.3819 64.1905 61.9105 64.2C61.4414 64.207 60.9818 64.1151 60.5316 63.9242C60.0814 63.7333 59.6666 63.4481 59.2871 63.0686C58.9029 62.6844 58.613 62.2696 58.4174 61.8241C58.2217 61.3786 58.1227 60.9261 58.1204 60.4664C58.1204 60.0045 58.2205 59.546 58.4209 59.0911C58.6212 58.6362 58.9253 58.2049 59.3331 57.7971C59.5405 57.5897 59.7502 57.4129 59.9624 57.2668C60.1769 57.1183 60.3902 56.9969 60.6023 56.9026C60.8144 56.8036 61.0254 56.7317 61.2352 56.687C61.4449 56.6422 61.6524 56.6162 61.8574 56.6092L62.0165 57.3127C62.0425 57.4235 62.0295 57.5213 61.9776 57.6062C61.9234 57.6887 61.8315 57.7453 61.7019 57.7759C61.5793 57.8089 61.4567 57.8419 61.3342 57.8749C61.2116 57.9079 61.0855 57.9562 60.9559 58.0198C60.8286 58.0811 60.6942 58.1613 60.5528 58.2603C60.4137 58.3569 60.2664 58.483 60.1109 58.6386C59.8587 58.8908 59.6725 59.1618 59.5523 59.4517C59.4344 59.7393 59.3826 60.0339 59.3967 60.3356C59.4108 60.6373 59.4898 60.9378 59.6336 61.2372C59.7774 61.5365 59.9859 61.8229 60.2594 62.0963C60.5516 62.3886 60.8545 62.609 61.168 62.7575C61.4815 62.9012 61.7938 62.9778 62.1049 62.9873C62.416 62.992 62.7213 62.9295 63.0206 62.7999C63.3176 62.6679 63.5981 62.4699 63.8621 62.2059C64.0506 62.0174 64.1991 61.8288 64.3076 61.6402C64.416 61.4517 64.5067 61.2525 64.5798 61.0427L63.6535 60.1164L63.01 60.7599C62.9487 60.8212 62.8839 60.853 62.8156 60.8553C62.7472 60.853 62.6883 60.8271 62.6388 60.7776L62.1014 60.2402L63.7984 58.5431ZM67.5373 51.5657C67.5585 51.6435 67.5644 51.7107 67.5549 51.7673C67.5455 51.8191 67.5172 51.8686 67.4701 51.9157C67.4206 51.9652 67.3487 52.0018 67.2544 52.0253C67.1601 52.0442 67.0505 52.0713 66.9256 52.1067C66.8007 52.142 66.6663 52.1962 66.5226 52.2693C66.3788 52.3377 66.2338 52.4449 66.0877 52.591C65.9557 52.723 65.8567 52.855 65.7907 52.987C65.7224 53.1167 65.6823 53.2439 65.6705 53.3689C65.6611 53.4914 65.6799 53.6093 65.7271 53.7224C65.7718 53.8332 65.8414 53.9357 65.9357 54.03C66.0559 54.1502 66.189 54.2174 66.3352 54.2315C66.4837 54.2433 66.6416 54.2221 66.8089 54.1679C66.9763 54.1137 67.1531 54.0382 67.3393 53.9416C67.5255 53.845 67.7188 53.7483 67.9191 53.6517C68.1171 53.5527 68.321 53.4667 68.5307 53.3936C68.7382 53.3182 68.9491 53.2769 69.1636 53.2699C69.3757 53.2604 69.589 53.297 69.8035 53.3795C70.0204 53.4596 70.2349 53.6057 70.447 53.8179C70.678 54.0489 70.8548 54.3058 70.9773 54.5886C71.0999 54.8667 71.16 55.1578 71.1576 55.4619C71.1553 55.7612 71.0881 56.0641 70.9561 56.3705C70.8218 56.6746 70.6132 56.968 70.3303 57.2509C70.1677 57.4135 69.9909 57.5573 69.8 57.6822C69.6114 57.8095 69.4146 57.9167 69.2096 58.0039C69.0069 58.0888 68.8006 58.1536 68.5908 58.1984C68.3811 58.2432 68.176 58.2644 67.9757 58.262L67.7989 57.5266C67.7895 57.4701 67.793 57.4123 67.8095 57.3534C67.8236 57.2921 67.8519 57.2403 67.8943 57.1978C67.9533 57.1389 68.0417 57.1 68.1595 57.0812C68.275 57.0599 68.4094 57.0317 68.5626 56.9963C68.7158 56.961 68.8796 56.9056 69.054 56.8301C69.2284 56.75 69.404 56.6215 69.5808 56.4448C69.8519 56.1737 69.998 55.9003 70.0192 55.6245C70.0381 55.3464 69.9273 55.0871 69.6869 54.8467C69.5525 54.7124 69.4087 54.6369 69.2555 54.6204C69.1047 54.6016 68.9456 54.6193 68.7782 54.6735C68.6085 54.7253 68.4329 54.8019 68.2514 54.9033C68.0699 55.0046 67.8826 55.1048 67.6893 55.2038C67.496 55.3028 67.2957 55.39 67.0882 55.4654C66.8808 55.5408 66.6687 55.5809 66.4519 55.5856C66.235 55.5903 66.0134 55.5479 65.7872 55.4584C65.5609 55.3641 65.3311 55.2003 65.0977 54.9669C64.9115 54.7807 64.7666 54.5627 64.6629 54.3128C64.5615 54.0606 64.5132 53.7955 64.5179 53.5173C64.5226 53.2392 64.5874 52.9552 64.7124 52.6653C64.8373 52.3754 65.0341 52.0961 65.3028 51.8274C65.6045 51.5257 65.9298 51.2947 66.2786 51.1344C66.6274 50.9741 66.9763 50.8893 67.3251 50.8798L67.5373 51.5657ZM75.1975 47.1581C75.5723 47.5329 75.8575 47.943 76.0531 48.3885C76.2488 48.8293 76.3501 49.2795 76.3572 49.7391C76.3643 50.1987 76.2747 50.6536 76.0885 51.1038C75.8999 51.5516 75.6112 51.97 75.2223 52.3589C74.8357 52.7455 74.4186 53.033 73.9707 53.2216C73.5205 53.4078 73.0644 53.4985 72.6025 53.4938C72.1428 53.4867 71.6915 53.3866 71.2484 53.1933C70.8029 52.9977 70.3928 52.7125 70.018 52.3377C69.6432 51.9629 69.3592 51.554 69.1659 51.1109C68.9703 50.6654 68.8689 50.2128 68.8619 49.7532C68.8572 49.2912 68.9491 48.8363 69.1376 48.3885C69.3238 47.9383 69.6102 47.5199 69.9968 47.1334C70.256 46.8741 70.5306 46.6608 70.8206 46.4935C71.1081 46.3237 71.4027 46.1988 71.7044 46.1187C72.0038 46.0362 72.3078 45.9985 72.6166 46.0056C72.9254 46.0079 73.2294 46.0527 73.5288 46.1399C73.8281 46.2271 74.118 46.3567 74.3985 46.5288C74.6814 46.6985 74.9477 46.9083 75.1975 47.1581ZM74.2253 48.1304C73.9448 47.8499 73.6561 47.6366 73.3591 47.4905C73.0597 47.342 72.7627 47.2595 72.4681 47.243C72.1735 47.2265 71.8848 47.2772 71.6019 47.395C71.3214 47.5105 71.0563 47.6932 70.8064 47.943C70.5566 48.1929 70.3727 48.4592 70.2549 48.7421C70.1394 49.0225 70.0887 49.3113 70.1028 49.6083C70.1193 49.9029 70.2018 50.1999 70.3503 50.4992C70.4965 50.7962 70.7098 51.0849 70.9903 51.3654C71.2707 51.6459 71.5607 51.8604 71.86 52.0089C72.157 52.155 72.4528 52.2363 72.7474 52.2528C73.042 52.2646 73.3296 52.2128 73.6101 52.0973C73.8929 51.9794 74.1593 51.7956 74.4091 51.5457C74.659 51.2959 74.8416 51.0307 74.9571 50.7502C75.075 50.4674 75.1268 50.1798 75.1127 49.8876C75.0962 49.5929 75.0149 49.2971 74.8687 49.0001C74.7202 48.7008 74.5058 48.4109 74.2253 48.1304ZM80.9083 41.4474C81.283 41.8222 81.5682 42.2323 81.7639 42.6778C81.9595 43.1185 82.0608 43.5687 82.0679 44.0284C82.075 44.488 81.9854 44.9429 81.7992 45.3931C81.6107 45.8409 81.3219 46.2593 80.933 46.6482C80.5465 47.0347 80.1293 47.3223 79.6814 47.5109C79.2312 47.6971 78.7752 47.7878 78.3132 47.7831C77.8536 47.776 77.4022 47.6759 76.9591 47.4826C76.5136 47.2869 76.1035 47.0017 75.7287 46.627C75.3539 46.2522 75.0699 45.8433 74.8766 45.4001C74.681 44.9547 74.5797 44.5021 74.5726 44.0425C74.5679 43.5805 74.6598 43.1256 74.8484 42.6778C75.0346 42.2276 75.3209 41.8092 75.7075 41.4227C75.9668 41.1634 76.2414 40.9501 76.5313 40.7827C76.8188 40.613 77.1135 40.4881 77.4152 40.408C77.7145 40.3255 78.0186 40.2878 78.3273 40.2948C78.6361 40.2972 78.9401 40.342 79.2395 40.4292C79.5388 40.5164 79.8287 40.646 80.1092 40.8181C80.3921 40.9878 80.6584 41.1976 80.9083 41.4474ZM79.936 42.4197C79.6555 42.1392 79.3668 41.9259 79.0698 41.7798C78.7704 41.6313 78.4735 41.5488 78.1788 41.5323C77.8842 41.5158 77.5955 41.5664 77.3126 41.6843C77.0321 41.7998 76.767 41.9825 76.5171 42.2323C76.2673 42.4822 76.0834 42.7485 75.9656 43.0313C75.8501 43.3118 75.7994 43.6006 75.8136 43.8975C75.8301 44.1922 75.9126 44.4892 76.061 44.7885C76.2072 45.0855 76.4205 45.3742 76.701 45.6547C76.9815 45.9352 77.2714 46.1497 77.5707 46.2982C77.8677 46.4443 78.1635 46.5256 78.4581 46.5421C78.7528 46.5539 79.0403 46.5021 79.3208 46.3866C79.6037 46.2687 79.87 46.0849 80.1198 45.835C80.3697 45.5852 80.5524 45.32 80.6678 45.0395C80.7857 44.7567 80.8376 44.4691 80.8234 44.1769C80.8069 43.8822 80.7256 43.5864 80.5795 43.2894C80.431 42.9901 80.2165 42.7002 79.936 42.4197ZM83.4971 33.7462L88.6095 38.8586L88.1216 39.3465C88.0462 39.4219 87.9707 39.4738 87.8953 39.502C87.8199 39.5256 87.7291 39.5315 87.6231 39.5197L81.5455 38.7808C81.7152 38.9222 81.866 39.0589 81.998 39.1909L85.1376 42.3305L84.2997 43.1684L79.1873 38.056L79.6858 37.5575C79.7259 37.5174 79.7624 37.4856 79.7954 37.462C79.8284 37.4338 79.8614 37.4149 79.8944 37.4055C79.9274 37.3913 79.9651 37.3843 80.0075 37.3843C80.0476 37.3819 80.0971 37.3843 80.156 37.3913L86.2584 38.1338C86.1688 38.0584 86.0816 37.9829 85.9967 37.9075C85.9119 37.8321 85.8353 37.7602 85.7669 37.6919L82.6592 34.5841L83.4971 33.7462Z" fill="white"/>
<defs>
<linearGradient id="paint0_linear" x1="13.5734" y1="108.462" x2="179.995" y2="-59.095" gradientUnits="userSpaceOnUse">
<stop stop-color="#AE8625"/>
<stop offset="0.333333" stop-color="#F7EF8A"/>
<stop offset="0.567708" stop-color="#D2AC47"/>
<stop offset="1" stop-color="#EDC967"/>
</linearGradient>
</defs>
</svg>
