<svg width="1104" height="1913" viewBox="0 0 1104 1913" fill="none" xmlns="http://www.w3.org/2000/svg">
<rect x="10" y="10" width="1084" height="1893" rx="105" stroke="#BEBBBB" stroke-width="20"/>
<path d="M812 957C812 1097.49 695.935 1212 552 1212C408.065 1212 292 1097.49 292 957C292 816.506 408.065 702 552 702C695.935 702 812 816.506 812 957Z" stroke="#BEBBBB" stroke-width="40"/>
<line x1="380.766" y1="798.491" x2="751.766" y2="1150.49" stroke="#BEBBBB" stroke-width="40"/>
<path d="M169.141 404H160.094L125.734 351.406V404H116.688V335.75H125.734L160.188 388.578V335.75H169.141V404ZM237.625 372.078C237.625 378.766 236.5 384.609 234.25 389.609C232 394.578 228.812 398.375 224.688 401C220.562 403.625 215.75 404.938 210.25 404.938C204.875 404.938 200.109 403.625 195.953 401C191.797 398.344 188.562 394.578 186.25 389.703C183.969 384.797 182.797 379.125 182.734 372.688V367.766C182.734 361.203 183.875 355.406 186.156 350.375C188.438 345.344 191.656 341.5 195.812 338.844C200 336.156 204.781 334.812 210.156 334.812C215.625 334.812 220.438 336.141 224.594 338.797C228.781 341.422 232 345.25 234.25 350.281C236.5 355.281 237.625 361.109 237.625 367.766V372.078ZM228.672 367.672C228.672 359.578 227.047 353.375 223.797 349.062C220.547 344.719 216 342.547 210.156 342.547C204.469 342.547 199.984 344.719 196.703 349.062C193.453 353.375 191.781 359.375 191.688 367.062V372.078C191.688 379.922 193.328 386.094 196.609 390.594C199.922 395.062 204.469 397.297 210.25 397.297C216.062 397.297 220.562 395.188 223.75 390.969C226.938 386.719 228.578 380.641 228.672 372.734V367.672ZM296.969 343.156H275.031V404H266.078V343.156H244.188V335.75H296.969V343.156ZM366.719 386.188H338.125L331.703 404H322.422L348.484 335.75H356.359L382.469 404H373.234L366.719 386.188ZM340.844 378.781H364.047L352.422 346.859L340.844 378.781ZM410.125 392.047L429.625 335.75H439.469L414.156 404H406.188L380.922 335.75H390.719L410.125 392.047ZM482.781 386.188H454.188L447.766 404H438.484L464.547 335.75H472.422L498.531 404H489.297L482.781 386.188ZM456.906 378.781H480.109L468.484 346.859L456.906 378.781ZM517.375 404H508.375V335.75H517.375V404ZM542.922 396.641H575.266V404H533.875V335.75H542.922V396.641ZM624.156 386.188H595.562L589.141 404H579.859L605.922 335.75H613.797L639.906 404H630.672L624.156 386.188ZM598.281 378.781H621.484L609.859 346.859L598.281 378.781ZM649.094 404V335.75H671.406C678.812 335.75 684.375 337.281 688.094 340.344C691.844 343.406 693.719 347.938 693.719 353.938C693.719 357.125 692.812 359.953 691 362.422C689.188 364.859 686.719 366.75 683.594 368.094C687.281 369.125 690.188 371.094 692.312 374C694.469 376.875 695.547 380.312 695.547 384.312C695.547 390.438 693.562 395.25 689.594 398.75C685.625 402.25 680.016 404 672.766 404H649.094ZM658.094 372.078V396.641H672.953C677.141 396.641 680.438 395.562 682.844 393.406C685.281 391.219 686.5 388.219 686.5 384.406C686.5 376.188 682.031 372.078 673.094 372.078H658.094ZM658.094 364.859H671.688C675.625 364.859 678.766 363.875 681.109 361.906C683.484 359.938 684.672 357.266 684.672 353.891C684.672 350.141 683.578 347.422 681.391 345.734C679.203 344.016 675.875 343.156 671.406 343.156H658.094V364.859ZM717.953 396.641H750.297V404H708.906V335.75H717.953V396.641ZM799.141 372.453H769.562V396.641H803.922V404H760.562V335.75H803.453V343.156H769.562V365.094H799.141V372.453ZM876.578 373.859H847.938V404H838.938V335.75H881.219V343.156H847.938V366.5H876.578V373.859ZM944.5 372.078C944.5 378.766 943.375 384.609 941.125 389.609C938.875 394.578 935.688 398.375 931.562 401C927.438 403.625 922.625 404.938 917.125 404.938C911.75 404.938 906.984 403.625 902.828 401C898.672 398.344 895.438 394.578 893.125 389.703C890.844 384.797 889.672 379.125 889.609 372.688V367.766C889.609 361.203 890.75 355.406 893.031 350.375C895.312 345.344 898.531 341.5 902.688 338.844C906.875 336.156 911.656 334.812 917.031 334.812C922.5 334.812 927.312 336.141 931.469 338.797C935.656 341.422 938.875 345.25 941.125 350.281C943.375 355.281 944.5 361.109 944.5 367.766V372.078ZM935.547 367.672C935.547 359.578 933.922 353.375 930.672 349.062C927.422 344.719 922.875 342.547 917.031 342.547C911.344 342.547 906.859 344.719 903.578 349.062C900.328 353.375 898.656 359.375 898.562 367.062V372.078C898.562 379.922 900.203 386.094 903.484 390.594C906.797 395.062 911.344 397.297 917.125 397.297C922.938 397.297 927.438 395.188 930.625 390.969C933.812 386.719 935.453 380.641 935.547 372.734V367.672ZM983.031 376.391H967V404H957.953V335.75H980.547C988.234 335.75 994.141 337.5 998.266 341C1002.42 344.5 1004.5 349.594 1004.5 356.281C1004.5 360.531 1003.34 364.234 1001.03 367.391C998.75 370.547 995.562 372.906 991.469 374.469L1007.5 403.438V404H997.844L983.031 376.391ZM967 369.031H980.828C985.297 369.031 988.844 367.875 991.469 365.562C994.125 363.25 995.453 360.156 995.453 356.281C995.453 352.062 994.188 348.828 991.656 346.578C989.156 344.328 985.531 343.188 980.781 343.156H967V369.031ZM407.547 448.75L429.859 504.438L452.172 448.75H463.844V517H454.844V490.422L455.688 461.734L433.281 517H426.391L404.031 461.875L404.922 490.422V517H395.922V448.75H407.547ZM532.234 485.078C532.234 491.766 531.109 497.609 528.859 502.609C526.609 507.578 523.422 511.375 519.297 514C515.172 516.625 510.359 517.938 504.859 517.938C499.484 517.938 494.719 516.625 490.562 514C486.406 511.344 483.172 507.578 480.859 502.703C478.578 497.797 477.406 492.125 477.344 485.688V480.766C477.344 474.203 478.484 468.406 480.766 463.375C483.047 458.344 486.266 454.5 490.422 451.844C494.609 449.156 499.391 447.812 504.766 447.812C510.234 447.812 515.047 449.141 519.203 451.797C523.391 454.422 526.609 458.25 528.859 463.281C531.109 468.281 532.234 474.109 532.234 480.766V485.078ZM523.281 480.672C523.281 472.578 521.656 466.375 518.406 462.062C515.156 457.719 510.609 455.547 504.766 455.547C499.078 455.547 494.594 457.719 491.312 462.062C488.062 466.375 486.391 472.375 486.297 480.062V485.078C486.297 492.922 487.938 499.094 491.219 503.594C494.531 508.062 499.078 510.297 504.859 510.297C510.672 510.297 515.172 508.188 518.359 503.969C521.547 499.719 523.188 493.641 523.281 485.734V480.672ZM545.734 517V448.75H568.047C575.453 448.75 581.016 450.281 584.734 453.344C588.484 456.406 590.359 460.938 590.359 466.938C590.359 470.125 589.453 472.953 587.641 475.422C585.828 477.859 583.359 479.75 580.234 481.094C583.922 482.125 586.828 484.094 588.953 487C591.109 489.875 592.188 493.312 592.188 497.312C592.188 503.438 590.203 508.25 586.234 511.75C582.266 515.25 576.656 517 569.406 517H545.734ZM554.734 485.078V509.641H569.594C573.781 509.641 577.078 508.562 579.484 506.406C581.922 504.219 583.141 501.219 583.141 497.406C583.141 489.188 578.672 485.078 569.734 485.078H554.734ZM554.734 477.859H568.328C572.266 477.859 575.406 476.875 577.75 474.906C580.125 472.938 581.312 470.266 581.312 466.891C581.312 463.141 580.219 460.422 578.031 458.734C575.844 457.016 572.516 456.156 568.047 456.156H554.734V477.859ZM615.203 517H606.203V448.75H615.203V517ZM640.75 509.641H673.094V517H631.703V448.75H640.75V509.641ZM721.938 485.453H692.359V509.641H726.719V517H683.359V448.75H726.25V456.156H692.359V478.094H721.938V485.453Z" fill="#8D8D8D"/>
<path d="M187.328 1450.16H165.391V1511H156.438V1450.16H134.547V1442.75H187.328V1450.16ZM222.484 1483.39H206.453V1511H197.406V1442.75H220C227.688 1442.75 233.594 1444.5 237.719 1448C241.875 1451.5 243.953 1456.59 243.953 1463.28C243.953 1467.53 242.797 1471.23 240.484 1474.39C238.203 1477.55 235.016 1479.91 230.922 1481.47L246.953 1510.44V1511H237.297L222.484 1483.39ZM206.453 1476.03H220.281C224.75 1476.03 228.297 1474.88 230.922 1472.56C233.578 1470.25 234.906 1467.16 234.906 1463.28C234.906 1459.06 233.641 1455.83 231.109 1453.58C228.609 1451.33 224.984 1450.19 220.234 1450.16H206.453V1476.03ZM275.172 1477.02L292.984 1442.75H303.203L279.672 1485.55V1511H270.672V1485.55L247.141 1442.75H257.453L275.172 1477.02ZM355.938 1480.58C348.219 1478.36 342.594 1475.64 339.062 1472.42C335.562 1469.17 333.812 1465.17 333.812 1460.42C333.812 1455.05 335.953 1450.61 340.234 1447.11C344.547 1443.58 350.141 1441.81 357.016 1441.81C361.703 1441.81 365.875 1442.72 369.531 1444.53C373.219 1446.34 376.062 1448.84 378.062 1452.03C380.094 1455.22 381.109 1458.7 381.109 1462.48H372.062C372.062 1458.36 370.75 1455.12 368.125 1452.78C365.5 1450.41 361.797 1449.22 357.016 1449.22C352.578 1449.22 349.109 1450.2 346.609 1452.17C344.141 1454.11 342.906 1456.81 342.906 1460.28C342.906 1463.06 344.078 1465.42 346.422 1467.36C348.797 1469.27 352.812 1471.02 358.469 1472.61C364.156 1474.2 368.594 1475.97 371.781 1477.91C375 1479.81 377.375 1482.05 378.906 1484.61C380.469 1487.17 381.25 1490.19 381.25 1493.66C381.25 1499.19 379.094 1503.62 374.781 1506.97C370.469 1510.28 364.703 1511.94 357.484 1511.94C352.797 1511.94 348.422 1511.05 344.359 1509.27C340.297 1507.45 337.156 1504.98 334.938 1501.86C332.75 1498.73 331.656 1495.19 331.656 1491.22H340.703C340.703 1495.34 342.219 1498.61 345.25 1501.02C348.312 1503.39 352.391 1504.58 357.484 1504.58C362.234 1504.58 365.875 1503.61 368.406 1501.67C370.938 1499.73 372.203 1497.09 372.203 1493.75C372.203 1490.41 371.031 1487.83 368.688 1486.02C366.344 1484.17 362.094 1482.36 355.938 1480.58ZM407.547 1489.48L408.859 1498.48L410.781 1490.38L424.281 1442.75H431.875L445.047 1490.38L446.922 1498.62L448.375 1489.44L458.969 1442.75H468.016L451.469 1511H443.266L429.203 1461.27L428.125 1456.06L427.047 1461.27L412.469 1511H404.266L387.766 1442.75H396.766L407.547 1489.48ZM487.703 1511H478.703V1442.75H487.703V1511ZM549.953 1450.16H528.016V1511H519.062V1450.16H497.172V1442.75H549.953V1450.16ZM608.969 1489.34C608.125 1496.56 605.453 1502.14 600.953 1506.08C596.484 1509.98 590.531 1511.94 583.094 1511.94C575.031 1511.94 568.562 1509.05 563.688 1503.27C558.844 1497.48 556.422 1489.75 556.422 1480.06V1473.5C556.422 1467.16 557.547 1461.58 559.797 1456.77C562.078 1451.95 565.297 1448.27 569.453 1445.7C573.609 1443.11 578.422 1441.81 583.891 1441.81C591.141 1441.81 596.953 1443.84 601.328 1447.91C605.703 1451.94 608.25 1457.53 608.969 1464.69H599.922C599.141 1459.25 597.438 1455.31 594.812 1452.88C592.219 1450.44 588.578 1449.22 583.891 1449.22C578.141 1449.22 573.625 1451.34 570.344 1455.59C567.094 1459.84 565.469 1465.89 565.469 1473.73V1480.34C565.469 1487.75 567.016 1493.64 570.109 1498.02C573.203 1502.39 577.531 1504.58 583.094 1504.58C588.094 1504.58 591.922 1503.45 594.578 1501.2C597.266 1498.92 599.047 1494.97 599.922 1489.34H608.969ZM673.75 1511H664.703V1479.45H630.297V1511H621.297V1442.75H630.297V1472.09H664.703V1442.75H673.75V1511ZM699.391 1511H690.391V1442.75H699.391V1511ZM768.344 1511H759.297L724.938 1458.41V1511H715.891V1442.75H724.938L759.391 1495.58V1442.75H768.344V1511ZM834.719 1502.05C832.406 1505.36 829.172 1507.84 825.016 1509.5C820.891 1511.12 816.078 1511.94 810.578 1511.94C805.016 1511.94 800.078 1510.64 795.766 1508.05C791.453 1505.42 788.109 1501.7 785.734 1496.89C783.391 1492.08 782.188 1486.5 782.125 1480.16V1474.2C782.125 1463.92 784.516 1455.95 789.297 1450.3C794.109 1444.64 800.859 1441.81 809.547 1441.81C816.672 1441.81 822.406 1443.64 826.75 1447.3C831.094 1450.92 833.75 1456.08 834.719 1462.77H825.719C824.031 1453.73 818.656 1449.22 809.594 1449.22C803.562 1449.22 798.984 1451.34 795.859 1455.59C792.766 1459.81 791.203 1465.94 791.172 1473.97V1479.55C791.172 1487.2 792.922 1493.3 796.422 1497.83C799.922 1502.33 804.656 1504.58 810.625 1504.58C814 1504.58 816.953 1504.2 819.484 1503.45C822.016 1502.7 824.109 1501.44 825.766 1499.66V1484.33H809.969V1477.02H834.719V1502.05ZM918.859 1450.16H896.922V1511H887.969V1450.16H866.078V1442.75H918.859V1450.16ZM980.172 1479.08C980.172 1485.77 979.047 1491.61 976.797 1496.61C974.547 1501.58 971.359 1505.38 967.234 1508C963.109 1510.62 958.297 1511.94 952.797 1511.94C947.422 1511.94 942.656 1510.62 938.5 1508C934.344 1505.34 931.109 1501.58 928.797 1496.7C926.516 1491.8 925.344 1486.12 925.281 1479.69V1474.77C925.281 1468.2 926.422 1462.41 928.703 1457.38C930.984 1452.34 934.203 1448.5 938.359 1445.84C942.547 1443.16 947.328 1441.81 952.703 1441.81C958.172 1441.81 962.984 1443.14 967.141 1445.8C971.328 1448.42 974.547 1452.25 976.797 1457.28C979.047 1462.28 980.172 1468.11 980.172 1474.77V1479.08ZM971.219 1474.67C971.219 1466.58 969.594 1460.38 966.344 1456.06C963.094 1451.72 958.547 1449.55 952.703 1449.55C947.016 1449.55 942.531 1451.72 939.25 1456.06C936 1460.38 934.328 1466.38 934.234 1474.06V1479.08C934.234 1486.92 935.875 1493.09 939.156 1497.59C942.469 1502.06 947.016 1504.3 952.797 1504.3C958.609 1504.3 963.109 1502.19 966.297 1497.97C969.484 1493.72 971.125 1487.64 971.219 1479.73V1474.67ZM212.688 1624V1555.75H231.953C237.891 1555.75 243.141 1557.06 247.703 1559.69C252.266 1562.31 255.781 1566.05 258.25 1570.89C260.75 1575.73 262.016 1581.3 262.047 1587.58V1591.94C262.047 1598.38 260.797 1604.02 258.297 1608.86C255.828 1613.7 252.281 1617.42 247.656 1620.02C243.062 1622.61 237.703 1623.94 231.578 1624H212.688ZM221.688 1563.16V1616.64H231.156C238.094 1616.64 243.484 1614.48 247.328 1610.17C251.203 1605.86 253.141 1599.72 253.141 1591.75V1587.77C253.141 1580.02 251.312 1574 247.656 1569.72C244.031 1565.41 238.875 1563.22 232.188 1563.16H221.688ZM314.266 1592.45H284.688V1616.64H319.047V1624H275.688V1555.75H318.578V1563.16H284.688V1585.09H314.266V1592.45ZM350.359 1593.58C342.641 1591.36 337.016 1588.64 333.484 1585.42C329.984 1582.17 328.234 1578.17 328.234 1573.42C328.234 1568.05 330.375 1563.61 334.656 1560.11C338.969 1556.58 344.562 1554.81 351.438 1554.81C356.125 1554.81 360.297 1555.72 363.953 1557.53C367.641 1559.34 370.484 1561.84 372.484 1565.03C374.516 1568.22 375.531 1571.7 375.531 1575.48H366.484C366.484 1571.36 365.172 1568.12 362.547 1565.78C359.922 1563.41 356.219 1562.22 351.438 1562.22C347 1562.22 343.531 1563.2 341.031 1565.17C338.562 1567.11 337.328 1569.81 337.328 1573.28C337.328 1576.06 338.5 1578.42 340.844 1580.36C343.219 1582.27 347.234 1584.02 352.891 1585.61C358.578 1587.2 363.016 1588.97 366.203 1590.91C369.422 1592.81 371.797 1595.05 373.328 1597.61C374.891 1600.17 375.672 1603.19 375.672 1606.66C375.672 1612.19 373.516 1616.62 369.203 1619.97C364.891 1623.28 359.125 1624.94 351.906 1624.94C347.219 1624.94 342.844 1624.05 338.781 1622.27C334.719 1620.45 331.578 1617.98 329.359 1614.86C327.172 1611.73 326.078 1608.19 326.078 1604.22H335.125C335.125 1608.34 336.641 1611.61 339.672 1614.02C342.734 1616.39 346.812 1617.58 351.906 1617.58C356.656 1617.58 360.297 1616.61 362.828 1614.67C365.359 1612.73 366.625 1610.09 366.625 1606.75C366.625 1603.41 365.453 1600.83 363.109 1599.02C360.766 1597.17 356.516 1595.36 350.359 1593.58ZM404.594 1592.27L396.25 1600.94V1624H387.25V1555.75H396.25V1589.5L426.578 1555.75H437.453L410.594 1585.89L439.562 1624H428.781L404.594 1592.27ZM494.594 1563.16H472.656V1624H463.703V1563.16H441.812V1555.75H494.594V1563.16ZM555.906 1592.08C555.906 1598.77 554.781 1604.61 552.531 1609.61C550.281 1614.58 547.094 1618.38 542.969 1621C538.844 1623.62 534.031 1624.94 528.531 1624.94C523.156 1624.94 518.391 1623.62 514.234 1621C510.078 1618.34 506.844 1614.58 504.531 1609.7C502.25 1604.8 501.078 1599.12 501.016 1592.69V1587.77C501.016 1581.2 502.156 1575.41 504.438 1570.38C506.719 1565.34 509.938 1561.5 514.094 1558.84C518.281 1556.16 523.062 1554.81 528.438 1554.81C533.906 1554.81 538.719 1556.14 542.875 1558.8C547.062 1561.42 550.281 1565.25 552.531 1570.28C554.781 1575.28 555.906 1581.11 555.906 1587.77V1592.08ZM546.953 1587.67C546.953 1579.58 545.328 1573.38 542.078 1569.06C538.828 1564.72 534.281 1562.55 528.438 1562.55C522.75 1562.55 518.266 1564.72 514.984 1569.06C511.734 1573.38 510.062 1579.38 509.969 1587.06V1592.08C509.969 1599.92 511.609 1606.09 514.891 1610.59C518.203 1615.06 522.75 1617.3 528.531 1617.3C534.344 1617.3 538.844 1615.19 542.031 1610.97C545.219 1606.72 546.859 1600.64 546.953 1592.73V1587.67ZM578.406 1597.28V1624H569.406V1555.75H594.578C602.047 1555.75 607.891 1557.66 612.109 1561.47C616.359 1565.28 618.484 1570.33 618.484 1576.61C618.484 1583.23 616.406 1588.34 612.25 1591.94C608.125 1595.5 602.203 1597.28 594.484 1597.28H578.406ZM578.406 1589.92H594.578C599.391 1589.92 603.078 1588.8 605.641 1586.55C608.203 1584.27 609.484 1580.98 609.484 1576.7C609.484 1572.64 608.203 1569.39 605.641 1566.95C603.078 1564.52 599.562 1563.25 595.094 1563.16H578.406V1589.92ZM665.406 1555.75L687.719 1611.44L710.031 1555.75H721.703V1624H712.703V1597.42L713.547 1568.73L691.141 1624H684.25L661.891 1568.88L662.781 1597.42V1624H653.781V1555.75H665.406ZM790.094 1592.08C790.094 1598.77 788.969 1604.61 786.719 1609.61C784.469 1614.58 781.281 1618.38 777.156 1621C773.031 1623.62 768.219 1624.94 762.719 1624.94C757.344 1624.94 752.578 1623.62 748.422 1621C744.266 1618.34 741.031 1614.58 738.719 1609.7C736.438 1604.8 735.266 1599.12 735.203 1592.69V1587.77C735.203 1581.2 736.344 1575.41 738.625 1570.38C740.906 1565.34 744.125 1561.5 748.281 1558.84C752.469 1556.16 757.25 1554.81 762.625 1554.81C768.094 1554.81 772.906 1556.14 777.062 1558.8C781.25 1561.42 784.469 1565.25 786.719 1570.28C788.969 1575.28 790.094 1581.11 790.094 1587.77V1592.08ZM781.141 1587.67C781.141 1579.58 779.516 1573.38 776.266 1569.06C773.016 1564.72 768.469 1562.55 762.625 1562.55C756.938 1562.55 752.453 1564.72 749.172 1569.06C745.922 1573.38 744.25 1579.38 744.156 1587.06V1592.08C744.156 1599.92 745.797 1606.09 749.078 1610.59C752.391 1615.06 756.938 1617.3 762.719 1617.3C768.531 1617.3 773.031 1615.19 776.219 1610.97C779.406 1606.72 781.047 1600.64 781.141 1592.73V1587.67ZM803.594 1624V1555.75H822.859C828.797 1555.75 834.047 1557.06 838.609 1559.69C843.172 1562.31 846.688 1566.05 849.156 1570.89C851.656 1575.73 852.922 1581.3 852.953 1587.58V1591.94C852.953 1598.38 851.703 1604.02 849.203 1608.86C846.734 1613.7 843.188 1617.42 838.562 1620.02C833.969 1622.61 828.609 1623.94 822.484 1624H803.594ZM812.594 1563.16V1616.64H822.062C829 1616.64 834.391 1614.48 838.234 1610.17C842.109 1605.86 844.047 1599.72 844.047 1591.75V1587.77C844.047 1580.02 842.219 1574 838.562 1569.72C834.938 1565.41 829.781 1563.22 823.094 1563.16H812.594ZM905.172 1592.45H875.594V1616.64H909.953V1624H866.594V1555.75H909.484V1563.16H875.594V1585.09H905.172V1592.45Z" fill="#8D8D8D"/>
<ellipse cx="552.5" cy="118" rx="39.5" ry="44" fill="#C4C4C4"/>
</svg>
