<svg width="808" height="518" viewBox="0 0 808 518" fill="none" xmlns="http://www.w3.org/2000/svg">
<g clip-path="url(#clip0)">
<path d="M807.064 0.457031H0.344238V517.116H807.064V0.457031Z" fill="#E6E6E6"/>
<path d="M797.94 43H11.4702V509H797.94V43Z" fill="#606060"/>
<path d="M807.72 0H0V34.2724H807.72V0Z" fill="#38383D"/>
<path d="M25.4683 23.8742C28.9765 23.8742 31.8205 21.0302 31.8205 17.522C31.8205 14.0139 28.9765 11.1699 25.4683 11.1699C21.9602 11.1699 19.1162 14.0139 19.1162 17.522C19.1162 21.0302 21.9602 23.8742 25.4683 23.8742Z" fill="#FF6059"/>
<path d="M49.5797 23.8742C53.0878 23.8742 55.9318 21.0302 55.9318 17.522C55.9318 14.0139 53.0878 11.1699 49.5797 11.1699C46.0715 11.1699 43.2275 14.0139 43.2275 17.522C43.2275 21.0302 46.0715 23.8742 49.5797 23.8742Z" fill="#FFBE2E"/>
<path d="M73.6905 23.8742C77.1987 23.8742 80.0426 21.0302 80.0426 17.522C80.0426 14.0139 77.1987 11.1699 73.6905 11.1699C70.1823 11.1699 67.3384 14.0139 67.3384 17.522C67.3384 21.0302 70.1823 23.8742 73.6905 23.8742Z" fill="#2CCA40"/>
<path d="M258.022 176.151C258.022 176.151 260.939 216.389 259.609 218.755C258.28 221.121 282.958 263.626 282.958 263.626L322.411 226.65C322.411 226.65 320.022 175.502 322.564 173.194C325.106 170.887 258.022 176.151 258.022 176.151Z" fill="#A0616A"/>
<path d="M291.572 206.88C317.043 206.88 337.691 186.232 337.691 160.761C337.691 135.291 317.043 114.643 291.572 114.643C266.102 114.643 245.454 135.291 245.454 160.761C245.454 186.232 266.102 206.88 291.572 206.88Z" fill="#A0616A"/>
<path d="M288 234.708L283.268 232.05L259.92 211.02C259.92 211.02 257.594 210.153 257.243 217.426L256.892 224.7L241.818 234.907L241.126 400.123L345.379 405.16L349.765 238.907L326.223 223.189L321.909 213.993L295.39 232.635L288 234.708Z" fill="white"/>
<path d="M391.73 250.654L380.201 418.829H206.102C183.916 392.566 166.197 257.426 185.106 253.421C191.283 251.285 233.166 238.129 233.166 238.129C233.166 238.129 245.679 230.228 249.672 223.14C252.125 218.921 255.129 215.048 258.605 211.622L258.629 211.598L258.641 211.574C258.738 211.477 258.823 211.38 258.92 211.295C258.939 211.261 258.969 211.235 259.005 211.222C259.127 211.088 259.248 210.967 259.381 210.846V211.028L258.495 241.782L291.847 356.399C291.847 356.399 301.24 287.597 310.78 266.188C316.156 254.125 318.972 239.233 320.404 228.529C321.508 220.239 321.787 214.475 321.787 214.475C321.787 214.475 321.836 214.535 321.921 214.645V214.657C321.921 214.658 321.921 214.66 321.922 214.661C321.922 214.663 321.923 214.664 321.924 214.665C321.926 214.666 321.927 214.667 321.928 214.668C321.93 214.669 321.932 214.669 321.933 214.669C322.079 214.851 322.309 215.154 322.649 215.567L322.661 215.579C325.453 219.074 334.409 229.657 340.478 229.949C347.748 230.301 367.712 244.634 367.712 244.634C377.47 243.881 391.73 250.654 391.73 250.654Z" fill="#454369"/>
<path d="M335.698 379.176C335.698 379.176 348.834 333.638 367.995 339.424C387.157 345.21 366.121 378.216 366.121 378.216L335.698 379.176Z" fill="#A0616A"/>
<path d="M259.376 416.166C259.376 416.166 216.547 395.871 225.342 377.89C234.137 359.91 263.326 385.985 263.326 385.985L259.376 416.166Z" fill="#A0616A"/>
<path d="M276.53 418.83H266.251C262.119 417.806 257.928 417.036 253.702 416.525C252.731 416.476 252.415 414.959 252.536 412.556C252.875 408.582 253.529 404.642 254.49 400.771C255.959 394.218 257.925 387.13 259.187 382.615V382.603C259.928 379.969 260.413 378.222 260.425 377.967C260.462 377.166 267.185 378.27 271.821 379.12C274.261 379.569 276.118 379.945 276.118 379.945L276.348 401.827L276.53 418.83Z" fill="white"/>
<g filter="url(#filter0_d)">
<path d="M413.734 398.745C410.773 407.131 408.637 413.77 406.889 418.831H272.259C271.81 414.195 271.239 407.847 270.875 401.56C270.28 391.499 270.183 381.596 271.822 379.12C271.897 378.98 272.001 378.857 272.126 378.759C272.252 378.661 272.396 378.589 272.55 378.55C275.693 377.931 311.205 377.372 336.352 377.045C339.847 377.008 343.136 376.972 346.122 376.935C355.188 376.826 361.329 376.765 361.329 376.765C361.329 376.765 361.814 360.163 363.295 338.997C365.904 301.786 371.608 250.461 383.235 250.242L391.731 250.655C391.731 250.655 396.573 250.885 398.648 258.277C400.724 265.668 422.181 374.848 413.734 398.745Z" fill="#454369"/>
</g>
<path d="M253.802 117.555L245.215 113.954C245.215 113.954 264.374 96.5618 289.724 99.3795L282.918 91.8826C282.918 91.8826 300.706 86.3706 315.791 103.825C323.721 113 332.889 123.777 338.353 135.683L347.714 136.135L343.43 143.76L356.726 152.234L342.759 150.152C343.763 156.962 342.968 163.916 340.454 170.324L336.853 178.911C336.853 178.911 325.368 152.87 325.522 149.692L325.138 157.638C325.138 157.638 316.743 150.064 316.973 145.297L311.937 150.628L309.976 141.773L280.154 149.093L285.267 142.172L266.876 143.673L274.45 135.278C274.45 135.278 253.291 144.609 252.074 153.311C250.858 162.013 239.991 172.638 239.991 172.638L235.607 164.462C235.607 164.462 230.183 128.36 253.802 117.555Z" fill="#2F2E41"/>
<path d="M697.663 419.83H89.7349V77H697.663V419.83ZM91.7349 417.83H695.663V79H91.7349V417.83Z" fill="#E6E6E6"/>
<path d="M579.807 119.509C574.058 109.796 562.686 109.343 562.686 109.343C562.686 109.343 551.604 107.926 544.495 122.719C537.869 136.507 528.724 149.82 543.023 153.048L545.605 145.009L547.205 153.646C549.241 153.793 551.283 153.827 553.323 153.751C568.636 153.256 583.219 153.895 582.749 148.4C582.125 141.096 585.338 128.855 579.807 119.509Z" fill="#2F2E41"/>
<path d="M558.601 152.602C558.719 153.695 558.538 154.799 558.077 155.797C557 157.679 554.371 157.96 552.79 159.443C551.126 161.003 550.938 163.534 550.859 165.813C550.616 168.191 550.859 170.594 551.575 172.875C552.108 174.097 552.781 175.254 553.581 176.321C554.546 177.712 555.521 179.098 556.504 180.477C557.03 181.254 557.615 181.989 558.255 182.674C560.119 184.379 562.387 185.581 564.844 186.169C566.373 186.748 568.039 186.858 569.631 186.486C570.654 186.087 571.597 185.507 572.415 184.775C573.61 183.917 574.672 182.888 575.566 181.72C576.725 179.737 577.387 177.502 577.493 175.207C578.289 168.489 578.599 161.723 578.42 154.961C578.452 154.224 578.32 153.489 578.033 152.809C577.232 151.246 575.088 150.912 573.957 149.567C572.991 148.417 572.952 146.776 572.96 145.274L572.981 141.45C573.015 141.128 572.95 140.803 572.795 140.518C572.655 140.365 572.486 140.241 572.298 140.153C572.11 140.065 571.906 140.016 571.698 140.007C569.322 139.612 566.912 139.451 564.505 139.525C562.552 139.585 558.807 139.422 557.119 140.509C555.587 141.496 557.505 144.222 557.86 145.753C558.337 148.005 558.585 150.3 558.601 152.602V152.602Z" fill="#FFB8B8"/>
<path d="M563.082 146.035C571.617 146.035 578.537 139.116 578.537 130.58C578.537 122.045 571.617 115.125 563.082 115.125C554.546 115.125 547.626 122.045 547.626 130.58C547.626 139.116 554.546 146.035 563.082 146.035Z" fill="#FFB8B8"/>
<path d="M554.265 159.01C552.595 158.04 550.327 158.825 549.111 160.325C547.993 161.917 547.401 163.818 547.415 165.763C547.435 167.694 547.297 169.623 547.002 171.532C546.074 175.702 542.63 179.13 542.373 183.394C542.121 187.589 544.998 191.244 546.413 195.201C547.271 197.667 547.63 200.28 547.468 202.886C547.383 203.298 547.382 203.724 547.467 204.137C547.553 204.549 547.721 204.94 547.963 205.284C548.272 205.554 548.638 205.751 549.033 205.861C555.862 208.263 563.238 208.471 570.475 208.655L582.429 208.957C583.152 209.044 583.884 208.921 584.54 208.604C585.612 207.946 585.755 206.472 585.774 205.215C585.931 194.382 585.47 183.55 585.009 172.726C584.954 168.797 584.563 164.881 583.84 161.019C583.798 160.52 583.645 160.038 583.392 159.606C583.139 159.174 582.793 158.804 582.379 158.524C581.978 158.388 581.554 158.332 581.131 158.361C580.708 158.389 580.295 158.5 579.916 158.688C576.211 160.066 564.435 165.347 563.275 163.467C561.928 161.286 553.609 160.642 554.265 159.01Z" fill="white"/>
<path d="M554.867 159.278C554.563 159.493 554.264 159.721 553.977 159.962C552.901 160.85 551.937 161.865 551.105 162.985C549.729 164.861 548.634 166.928 547.854 169.12C546.58 173.009 545.711 177.019 545.262 181.086C545.007 182.576 544.87 184.084 544.852 185.595C544.941 191.152 548.226 196.299 548.23 201.86C548.23 202.071 548.226 202.278 548.213 202.489C548.174 203.399 548.067 204.305 547.892 205.2C547.652 206.504 547.305 207.792 546.963 209.076C546.236 212.344 545.068 215.499 543.493 218.453C543.324 218.741 543.142 219.023 542.956 219.298H531.134C531.227 219.015 531.324 218.736 531.417 218.453C533.431 212.487 535.443 206.523 537.455 200.559C538.071 198.735 538.688 196.903 539.122 195.028C539.62 192.713 539.96 190.367 540.14 188.006C540.605 183.113 540.91 178.209 541.056 173.296C541.017 171.526 541.24 169.76 541.719 168.056C542.254 166.693 542.96 165.405 543.822 164.222C545.042 162.385 546.262 160.548 547.483 158.712C548.09 157.642 548.922 156.717 549.923 156.001C550.797 155.465 551.836 155.271 552.756 154.819C553.336 154.49 553.892 154.122 554.42 153.717C555.797 152.741 557.414 151.715 558.6 152.712C558.792 152.872 558.958 153.061 559.09 153.273C559.158 153.378 559.218 153.486 559.271 153.599C560.411 156.064 556.4 158.192 554.867 159.278Z" fill="#2F2E41"/>
<path d="M593.814 219.297H539.059C539.354 219.027 539.646 218.744 539.928 218.453C539.971 218.411 540.009 218.368 540.051 218.326C542.145 216.152 542.622 213.479 543.674 210.65C544.463 208.518 545.253 206.387 546.042 204.257C546.167 203.843 546.372 203.457 546.646 203.122C546.875 202.885 547.162 202.713 547.478 202.623C547.717 202.55 547.963 202.505 548.213 202.488C548.568 202.465 548.925 202.465 549.281 202.488C559.106 202.995 568.924 203.613 578.736 204.342C580.002 204.439 581.269 204.536 582.536 204.633C583.57 205.402 584.592 206.216 585.568 207.078C588.803 209.767 591.368 213.171 593.062 217.021C593.252 217.49 593.425 217.967 593.569 218.453C593.662 218.731 593.742 219.014 593.814 219.297Z" fill="#2F2E41"/>
<path d="M577.265 118.573L566.03 112.688L550.514 115.095L547.304 129.273L555.295 128.967L557.527 123.758V128.88L561.215 128.739L563.355 120.446L564.692 129.273L577.8 129.006L577.265 118.573Z" fill="#2F2E41"/>
<path d="M593.814 219.299H581.451C581.362 219.02 581.278 218.737 581.198 218.454C580.324 215.314 579.684 212.113 579.281 208.878C579.15 207.953 579.036 207.025 578.93 206.1C578.863 205.513 578.799 204.93 578.736 204.343C578.027 197.824 577.482 191.241 575.489 185.001C575.248 184.245 574.987 183.494 574.733 182.742C574.265 181.448 573.898 180.12 573.635 178.769C573.095 175.678 573.5 172.477 572.943 169.391C572.631 167.668 572.01 166.152 571.634 164.573C571.395 163.62 571.301 162.637 571.355 161.656C572.265 160.797 573.41 160.23 574.645 160.026C575.078 160.021 575.494 159.854 575.81 159.557C575.962 159.297 576.03 158.996 576.004 158.696C576.034 156.704 575.919 154.713 575.662 152.738C575.578 152.046 575.472 151.353 575.345 150.665C575.341 150.631 575.333 150.602 575.329 150.568C576.389 150.193 577.516 150.04 578.639 150.12C579.859 150.125 581.075 150.125 582.291 150.129C584.542 150.137 586.792 150.144 589.043 150.15C591.137 150.008 593.238 150.312 595.207 151.041C597.157 152.023 598.723 153.628 599.658 155.601C600.579 157.561 601.254 159.627 601.667 161.753C601.802 162.336 601.873 162.932 601.879 163.53C601.971 168.285 598.425 173.073 598.07 177.933C597.956 179.508 598.087 181.095 597.943 182.67C597.8 184.249 597.378 185.795 597.302 187.374C597.297 187.454 597.293 187.539 597.293 187.619C597.339 189.681 597.761 191.717 598.539 193.627C599.611 196.638 600.916 199.555 602.263 202.456C603.563 205.264 604.897 208.059 606.097 210.905C606.72 212.226 607.14 213.634 607.342 215.081C607.475 216.244 607.253 217.42 606.705 218.454C606.564 218.71 606.395 218.949 606.202 219.168L606.194 219.176C606.156 219.219 606.118 219.261 606.08 219.299H593.814V219.299Z" fill="#2F2E41"/>
<path d="M605.59 214.966C605.538 215.528 605.385 216.075 605.138 216.583C605.117 216.633 605.096 216.68 605.075 216.731C604.83 217.309 604.581 217.879 604.323 218.453C604.197 218.732 604.07 219.015 603.939 219.298H596.947C597.2 219.033 597.434 218.751 597.648 218.453C598.72 216.963 599.341 215.151 600.434 213.543C600.583 213.323 600.754 213.119 600.945 212.935C602.698 211.237 605.7 211.584 605.59 214.966Z" fill="#FFB8B8"/>
<path d="M610.142 219.298C610.231 219.021 610.306 218.739 610.366 218.454C610.416 218.23 610.458 218.01 610.492 217.787C610.716 216.313 610.712 214.806 611.062 213.357C611.556 211.284 613.038 208.831 611.818 207.087C612.767 206.893 613.662 206.492 614.44 205.913C614.821 205.615 615.096 205.201 615.223 204.734C615.351 204.268 615.325 203.772 615.149 203.321C614.715 202.472 613.537 201.911 613.697 200.969C613.777 200.67 613.918 200.392 614.111 200.15C614.751 199.14 615.082 197.965 615.063 196.769C615.045 195.573 614.677 194.409 614.005 193.42C613.621 192.871 613.148 192.389 612.798 191.815C612.414 191.113 612.121 190.365 611.924 189.59C610.704 185.661 608.907 181.936 606.591 178.536C606.077 177.882 605.679 177.145 605.413 176.357C605.257 175.503 605.226 174.632 605.32 173.769C605.284 170.335 604.231 166.989 602.293 164.155C602.157 163.944 602.018 163.737 601.879 163.53C600.031 160.965 597.969 158.562 595.714 156.348C594.829 156.604 594.062 157.161 593.544 157.923C593.314 158.418 593.173 158.949 593.126 159.493C592.526 163.673 592.007 167.879 591.602 172.08C591.324 174.196 591.267 176.336 591.433 178.464C591.606 180.606 592.444 182.641 593.831 184.283C594.73 185.271 595.87 186.005 596.846 186.917C597.002 187.065 597.154 187.217 597.302 187.373C598.005 188.122 598.629 188.941 599.164 189.818C601.504 193.598 602.588 198.021 602.263 202.455C602.204 203.255 602.098 204.05 601.946 204.837C601.761 205.963 601.381 207.049 600.823 208.046C600.38 208.776 599.797 209.414 599.396 210.17C599.17 210.533 599.035 210.946 599.001 211.373C598.968 211.799 599.036 212.228 599.202 212.623C599.797 212.622 600.388 212.728 600.946 212.935C602.26 213.442 603.403 214.314 604.239 215.448C604.547 215.855 604.827 216.284 605.075 216.731C605.388 217.288 605.667 217.863 605.911 218.454C606.012 218.686 606.109 218.927 606.202 219.167C606.224 219.209 606.241 219.253 606.253 219.298L610.142 219.298Z" fill="#2F2E41"/>
<path d="M677.529 220.874H458.865V97H677.529V220.874ZM460.865 218.874H675.529V99H460.865V218.874Z" fill="#E6E6E6"/>
<path d="M403.373 482.831C415.798 482.831 425.871 472.759 425.871 460.334C425.871 447.909 415.798 437.836 403.373 437.836C390.948 437.836 380.875 447.909 380.875 460.334C380.875 472.759 390.948 482.831 403.373 482.831Z" fill="#E6E6E6"/>
<path d="M403.373 477.582C412.899 477.582 420.622 469.86 420.622 460.334C420.622 450.808 412.899 443.086 403.373 443.086C393.847 443.086 386.125 450.808 386.125 460.334C386.125 469.86 393.847 477.582 403.373 477.582Z" fill="white"/>
<path d="M412.014 469.755C411.911 469.755 411.809 469.735 411.713 469.695C411.618 469.656 411.532 469.598 411.459 469.525L394.175 452.241C394.034 452.092 393.956 451.894 393.959 451.69C393.962 451.485 394.044 451.289 394.189 451.144C394.334 450.999 394.53 450.917 394.735 450.914C394.939 450.911 395.137 450.989 395.286 451.13L412.569 468.414C412.679 468.524 412.754 468.664 412.784 468.816C412.815 468.968 412.799 469.126 412.74 469.27C412.68 469.413 412.58 469.536 412.45 469.622C412.321 469.709 412.169 469.755 412.014 469.755V469.755Z" fill="#38383D"/>
<path d="M402.979 463.265L400.436 460.722C400.422 460.707 400.403 460.698 400.383 460.695C400.363 460.691 400.342 460.695 400.323 460.704C400.305 460.713 400.29 460.727 400.28 460.746C400.271 460.764 400.267 460.784 400.27 460.805C400.373 461.465 400.682 462.075 401.155 462.547C401.627 463.019 402.237 463.329 402.896 463.431C402.917 463.434 402.937 463.43 402.956 463.421C402.974 463.411 402.988 463.396 402.998 463.378C403.007 463.359 403.01 463.339 403.007 463.318C403.003 463.298 402.994 463.279 402.979 463.265V463.265Z" fill="#38383D"/>
<path d="M403.765 457.388L406.312 459.934C406.326 459.949 406.345 459.959 406.366 459.962C406.386 459.965 406.407 459.962 406.425 459.953C406.444 459.944 406.459 459.929 406.469 459.911C406.478 459.892 406.482 459.872 406.479 459.851C406.376 459.191 406.066 458.58 405.594 458.107C405.121 457.634 404.51 457.324 403.849 457.222C403.829 457.219 403.808 457.222 403.79 457.232C403.771 457.241 403.756 457.256 403.747 457.274C403.738 457.293 403.734 457.314 403.738 457.334C403.741 457.355 403.75 457.374 403.765 457.388V457.388Z" fill="#38383D"/>
<path d="M414.911 461.179C415.074 460.924 415.16 460.628 415.159 460.325C415.158 460.023 415.07 459.727 414.906 459.473C413.646 457.503 411.986 455.821 410.032 454.536C408.052 453.22 405.734 452.502 403.357 452.471C402.158 452.472 400.967 452.668 399.83 453.05C399.798 453.06 399.77 453.079 399.747 453.104C399.725 453.128 399.709 453.158 399.701 453.191C399.693 453.224 399.694 453.258 399.703 453.29C399.713 453.322 399.73 453.352 399.754 453.375L402.073 455.695C402.097 455.719 402.127 455.736 402.16 455.745C402.193 455.754 402.228 455.755 402.261 455.746C403.047 455.555 403.869 455.569 404.649 455.787C405.428 456.005 406.138 456.421 406.71 456.993C407.282 457.565 407.697 458.275 407.916 459.054C408.134 459.834 408.148 460.656 407.957 461.442C407.948 461.475 407.949 461.51 407.958 461.542C407.967 461.575 407.984 461.605 408.008 461.629L411.345 464.968C411.379 465.003 411.426 465.023 411.475 465.026C411.524 465.028 411.572 465.011 411.61 464.98C412.894 463.885 414.007 462.604 414.911 461.179V461.179Z" fill="#38383D"/>
<path d="M403.372 465.041C402.659 465.041 401.954 464.879 401.313 464.567C400.671 464.255 400.108 463.802 399.667 463.241C399.226 462.68 398.918 462.026 398.766 461.329C398.614 460.632 398.623 459.909 398.791 459.216C398.799 459.183 398.799 459.148 398.79 459.115C398.781 459.082 398.764 459.053 398.74 459.029L395.458 455.745C395.423 455.71 395.376 455.69 395.327 455.688C395.278 455.686 395.23 455.702 395.192 455.734C393.931 456.827 392.814 458.076 391.869 459.452C391.692 459.707 391.594 460.009 391.588 460.32C391.583 460.63 391.669 460.936 391.838 461.197C393.077 463.168 394.722 464.853 396.663 466.139C398.646 467.461 400.973 468.172 403.357 468.183C404.568 468.18 405.771 467.989 406.923 467.616C406.955 467.606 406.984 467.587 407.007 467.563C407.03 467.538 407.046 467.508 407.054 467.475C407.062 467.442 407.062 467.408 407.053 467.376C407.043 467.343 407.026 467.314 407.002 467.29L404.671 464.96C404.647 464.936 404.618 464.918 404.585 464.909C404.552 464.9 404.517 464.9 404.484 464.908C404.12 464.996 403.747 465.041 403.372 465.041V465.041Z" fill="#38383D"/>
<path d="M318.014 482.831C330.439 482.831 340.512 472.759 340.512 460.334C340.512 447.909 330.439 437.836 318.014 437.836C305.589 437.836 295.517 447.909 295.517 460.334C295.517 472.759 305.589 482.831 318.014 482.831Z" fill="#E6E6E6"/>
<path d="M318.014 477.582C327.54 477.582 335.263 469.86 335.263 460.334C335.263 450.808 327.54 443.086 318.014 443.086C308.488 443.086 300.766 450.808 300.766 460.334C300.766 469.86 308.488 477.582 318.014 477.582Z" fill="white"/>
<path d="M324.64 471.332C323.1 471.209 321.614 470.703 320.319 469.859C317.814 468.52 315.525 466.808 313.533 464.783C311.471 462.818 309.749 460.526 308.437 457.998C306.628 454.708 306.936 452.984 307.281 452.247C307.679 451.441 308.305 450.77 309.08 450.316C309.525 450.025 309.996 449.775 310.487 449.57C310.536 449.549 310.581 449.529 310.622 449.51C310.785 449.419 310.965 449.362 311.151 449.345C311.336 449.328 311.524 449.351 311.7 449.412C312.092 449.601 312.441 449.868 312.724 450.198C313.745 451.344 314.607 452.623 315.285 454C315.564 454.476 315.736 455.007 315.788 455.557C315.747 456.101 315.527 456.615 315.162 457.021C315.097 457.108 315.034 457.192 314.972 457.274C314.598 457.765 314.516 457.907 314.57 458.16C315.07 459.435 315.844 460.583 316.838 461.524C317.765 462.503 318.902 463.26 320.163 463.737C320.427 463.794 320.572 463.708 321.079 463.321C321.152 463.266 321.226 463.208 321.304 463.151C321.71 462.768 322.234 462.534 322.79 462.486H322.793C323.351 462.543 323.887 462.731 324.357 463.035C325.719 463.725 326.991 464.579 328.145 465.578C328.475 465.86 328.744 466.208 328.933 466.599C328.994 466.776 329.017 466.964 329 467.15C328.983 467.336 328.927 467.517 328.835 467.68C328.817 467.72 328.797 467.765 328.776 467.815C328.569 468.304 328.318 468.774 328.025 469.218C327.57 469.993 326.898 470.617 326.091 471.014C325.638 471.228 325.142 471.337 324.64 471.332Z" fill="#38383D"/>
<path d="M489.394 482.831C501.819 482.831 511.892 472.759 511.892 460.334C511.892 447.909 501.819 437.836 489.394 437.836C476.969 437.836 466.896 447.909 466.896 460.334C466.896 472.759 476.969 482.831 489.394 482.831Z" fill="#E6E6E6"/>
<path d="M489.394 477.582C498.92 477.582 506.643 469.86 506.643 460.334C506.643 450.808 498.92 443.086 489.394 443.086C479.868 443.086 472.146 450.808 472.146 460.334C472.146 469.86 479.868 477.582 489.394 477.582Z" fill="white"/>
<path d="M492.536 470.548H486.251C486.148 470.548 486.045 470.528 485.95 470.489C485.854 470.45 485.767 470.392 485.694 470.319C485.621 470.246 485.563 470.159 485.523 470.063C485.483 469.968 485.463 469.866 485.463 469.762C485.463 469.659 485.483 469.556 485.523 469.461C485.563 469.365 485.621 469.279 485.694 469.206C485.767 469.133 485.854 469.075 485.95 469.036C486.045 468.996 486.148 468.976 486.251 468.977H492.536C492.64 468.976 492.742 468.996 492.838 469.036C492.933 469.075 493.02 469.133 493.094 469.206C493.167 469.279 493.225 469.365 493.265 469.461C493.304 469.556 493.325 469.659 493.325 469.762C493.325 469.866 493.304 469.968 493.265 470.063C493.225 470.159 493.167 470.246 493.094 470.319C493.02 470.392 492.933 470.45 492.838 470.489C492.742 470.528 492.64 470.548 492.536 470.548Z" fill="#38383D"/>
<path d="M489.394 466.618C487.519 466.616 485.722 465.87 484.397 464.545C483.071 463.219 482.325 461.422 482.323 459.547V457.976C482.324 457.768 482.407 457.569 482.554 457.422C482.702 457.276 482.901 457.193 483.109 457.193C483.317 457.193 483.516 457.276 483.663 457.422C483.811 457.569 483.894 457.768 483.895 457.976V459.547C483.894 460.27 484.035 460.986 484.311 461.654C484.587 462.322 484.992 462.929 485.503 463.441C486.013 463.952 486.62 464.358 487.288 464.635C487.955 464.912 488.671 465.054 489.394 465.054C490.117 465.054 490.832 464.912 491.5 464.635C492.168 464.358 492.774 463.952 493.285 463.441C493.796 462.929 494.201 462.322 494.477 461.654C494.753 460.986 494.894 460.27 494.893 459.547V457.976C494.894 457.768 494.977 457.569 495.124 457.422C495.272 457.276 495.471 457.193 495.679 457.193C495.887 457.193 496.086 457.276 496.233 457.422C496.381 457.569 496.464 457.768 496.465 457.976V459.547C496.462 461.422 495.717 463.219 494.391 464.545C493.066 465.87 491.269 466.616 489.394 466.618V466.618Z" fill="#38383D"/>
<path d="M489.394 470.547C489.291 470.547 489.189 470.527 489.093 470.487C488.998 470.448 488.911 470.39 488.839 470.317C488.766 470.244 488.708 470.157 488.668 470.062C488.629 469.967 488.608 469.865 488.608 469.761V465.833C488.608 465.73 488.628 465.628 488.667 465.532C488.707 465.436 488.765 465.349 488.838 465.276C488.911 465.203 488.997 465.145 489.093 465.105C489.188 465.065 489.291 465.045 489.394 465.045C489.497 465.045 489.6 465.065 489.695 465.105C489.791 465.145 489.878 465.203 489.951 465.276C490.023 465.349 490.081 465.436 490.121 465.532C490.16 465.628 490.18 465.73 490.18 465.833V469.761C490.18 469.865 490.159 469.967 490.12 470.062C490.08 470.157 490.022 470.244 489.95 470.317C489.877 470.39 489.79 470.448 489.695 470.487C489.599 470.527 489.497 470.547 489.394 470.547V470.547Z" fill="#38383D"/>
<path d="M489.394 463.477C488.876 463.476 488.363 463.37 487.886 463.167C487.409 462.964 486.977 462.667 486.617 462.294C485.88 461.55 485.467 460.546 485.466 459.5V454.049C485.462 453.012 485.87 452.015 486.601 451.278C487.332 450.542 488.326 450.125 489.363 450.121C489.374 450.121 489.384 450.121 489.394 450.121C489.911 450.116 490.425 450.213 490.904 450.409C491.383 450.604 491.818 450.894 492.184 451.259C492.55 451.625 492.839 452.061 493.035 452.54C493.23 453.019 493.328 453.532 493.322 454.049V459.5C493.327 460.548 492.917 461.555 492.18 462.301C491.444 463.046 490.442 463.469 489.394 463.477V463.477Z" fill="#38383D"/>
</g>
<defs>
<filter id="filter0_d" x="266.479" y="250.242" width="153.215" height="176.588" filterUnits="userSpaceOnUse" color-interpolation-filters="sRGB">
<feFlood flood-opacity="0" result="BackgroundImageFix"/>
<feColorMatrix in="SourceAlpha" type="matrix" values="0 0 0 0 0 0 0 0 0 0 0 0 0 0 0 0 0 0 127 0"/>
<feOffset dy="4"/>
<feGaussianBlur stdDeviation="2"/>
<feColorMatrix type="matrix" values="0 0 0 0 0 0 0 0 0 0 0 0 0 0 0 0 0 0 0.25 0"/>
<feBlend mode="normal" in2="BackgroundImageFix" result="effect1_dropShadow"/>
<feBlend mode="normal" in="SourceGraphic" in2="effect1_dropShadow" result="shape"/>
</filter>
<clipPath id="clip0">
<rect width="807.064" height="517.116" fill="white"/>
</clipPath>
</defs>
</svg>
